<svg xmlns="http://www.w3.org/2000/svg" width="16" height="16"><g color="#000"><path fill="#c2e4f8" style="isolation:auto;mix-blend-mode:normal" d="M9.39 1041.57a2.817 2.817 0 0 1-2.817 2.817 2.817 2.817 0 0 1-2.817-2.817 2.817 2.817 0 0 1 2.817-2.816 2.817 2.817 0 0 1 2.817 2.816z" overflow="visible" transform="translate(0 -1036.362)"/><path fill="#249fe6" style="line-height:normal;text-indent:0;text-align:start;text-decoration-line:none;text-decoration-style:solid;text-decoration-color:#000;text-transform:none;block-progression:tb;isolation:auto;mix-blend-mode:normal" d="M6.572 1038.254a3.324 3.324 0 0 0-3.316 3.316 3.324 3.324 0 0 0 3.316 3.317 3.324 3.324 0 0 0 3.317-3.317 3.324 3.324 0 0 0-3.317-3.316zm0 1a2.309 2.309 0 0 1 2.317 2.316 2.309 2.309 0 0 1-2.317 2.317 2.309 2.309 0 0 1-2.316-2.317 2.309 2.309 0 0 1 2.316-2.316zm0 6.541c-3.594 0-6.572 2.475-6.572 5.633h.939c0-2.563 2.466-4.694 5.634-4.694s5.633 2.131 5.633 4.694h.94c0-3.158-2.979-5.633-6.573-5.633z" font-family="sans-serif" font-weight="400" overflow="visible" transform="translate(0 -1036.362)"/><path fill="#249fe6" fill-rule="evenodd" style="line-height:normal;text-indent:0;text-align:start;text-decoration-line:none;text-decoration-style:solid;text-decoration-color:#000;text-transform:none;block-progression:tb;isolation:auto;mix-blend-mode:normal" d="M13.607 1036.361a.5.5 0 0 0-.492.508v3.756a.5.5 0 1 0 1 0v-3.756a.5.5 0 0 0-.508-.508z" font-family="sans-serif" font-weight="400" overflow="visible" transform="translate(0 -1036.362)"/><path fill="#249fe6" fill-rule="evenodd" style="line-height:normal;text-indent:0;text-align:start;text-decoration-line:none;text-decoration-style:solid;text-decoration-color:#000;text-transform:none;block-progression:tb;isolation:auto;mix-blend-mode:normal" d="M11.736 1038.246a.5.5 0 1 0 0 1h3.756a.5.5 0 1 0 0-1h-3.756z" font-family="sans-serif" font-weight="400" overflow="visible" transform="translate(0 -1036.362)"/></g></svg>