<svg xmlns="http://www.w3.org/2000/svg" enable-background="new 0 0 512 512" viewBox="0 0 512 512"><linearGradient id="a" x1="72.579" x2="450.519" y1="85.834" y2="463.774" gradientTransform="matrix(1 0 0 -1 0 512)" gradientUnits="userSpaceOnUse"><stop offset="0" stop-color="#0095da"/><stop offset=".5" stop-color="#00aeee"/><stop offset="1" stop-color="#2bc4f3"/></linearGradient><path fill="url(#a)" d="M115.89,114.133c-39.172,0-71.043,31.804-71.043,70.895
		c0,39.704,32.135,70.968,71.043,70.968c39.21,0,70.968-31.66,70.968-70.968C186.86,145.937,155.023,114.133,115.89,114.133z
		 M88.624,232.693c6.393-8.758,16.309-14.037,27.266-14.037c10.925,0,20.822,5.285,27.205,14.052
		c-8.178,4.718-17.421,7.288-27.205,7.288C106.127,239.996,96.863,237.422,88.624,232.693z M155.665,222.853
		c-9.367-12.606-23.807-20.197-39.773-20.197c-16.006,0-30.474,7.594-39.853,20.203c-9.697-10.149-15.191-23.495-15.191-37.832
		c0-30.269,24.691-54.894,55.043-54.894c30.309,0,54.969,24.625,54.969,54.894C170.859,199.354,165.373,212.692,155.665,222.853z
		 M115.852,147.93c-14.012,0-25.414,11.402-25.414,25.414c0,14.012,11.402,25.414,25.414,25.414s25.414-11.402,25.414-25.414
		C141.266,159.332,129.863,147.93,115.852,147.93z M115.852,182.758c-5.191,0-9.415-4.222-9.415-9.415
		c0-5.278,4.137-9.415,9.415-9.415c5.191,0,9.415,4.222,9.415,9.415C125.265,178.535,121.043,182.758,115.852,182.758z
		 M209.805,136.722c0-4.418,3.582-8,8-8h12.133c4.418,0,8,3.582,8,8c0,4.419-3.582,8-8,8h-12.133
		C213.386,144.722,209.805,141.141,209.805,136.722z M266.418,136.722c0-4.418,3.582-8,8-8h12.133c4.418,0,8,3.582,8,8
		c0,4.419-3.582,8-8,8h-12.133C270,144.722,266.418,141.141,266.418,136.722z M323.031,136.722c0-4.418,3.582-8,8-8h12.133
		c4.418,0,8,3.582,8,8c0,4.419-3.582,8-8,8h-12.133C326.614,144.722,323.031,141.141,323.031,136.722z M209.805,173.344
		c0-4.418,3.582-8,8-8h225.649c4.418,0,8,3.582,8,8c0,4.418-3.582,8-8,8H217.805C213.386,181.344,209.805,177.761,209.805,173.344z
		 M209.805,218.406c0-4.418,3.582-8,8-8h125.359c4.418,0,8,3.582,8,8c0,4.418-3.582,8-8,8H217.805
		C213.386,226.406,209.805,222.824,209.805,218.406z M209.805,263.473c0-4.418,3.582-8,8-8h225.649c4.418,0,8,3.582,8,8
		c0,4.418-3.582,8-8,8H217.805C213.386,271.472,209.805,267.891,209.805,263.473z M351.164,308.536c0,4.418-3.582,8-8,8H217.805
		c-4.418,0-8-3.582-8-8c0-4.419,3.582-8,8-8h125.359C347.582,300.535,351.164,304.117,351.164,308.536z M153.059,313.89
		c0,4.418-3.582,8-8,8h-58.41c-4.418,0-8-3.582-8-8c0-4.418,3.582-8,8-8h58.41C149.476,305.891,153.059,309.473,153.059,313.89z
		 M484.731,312.852V95.441c0-17.336-14.102-31.437-31.433-31.437H31.437C14.101,64.004,0,78.105,0,95.441v245.145
		c0,17.336,14.102,31.437,31.437,31.437h327.251c0.343,41.947,34.575,75.973,76.64,75.973c42.278,0,76.672-34.364,76.672-76.602
		C512.001,347.934,501.384,326.927,484.731,312.852z M16,340.587V95.442c0-8.512,6.926-15.438,15.438-15.438h421.859
		c8.512,0,15.434,6.926,15.434,15.438v207.046c-10.113-4.923-21.419-7.765-33.403-7.765c-37.015,0-67.983,26.365-75.121,61.301
		H31.437C22.926,356.023,16,349.097,16,340.587z M435.328,431.996c-33.453,0-60.672-27.187-60.672-60.601
		c0-33.453,27.218-60.672,60.672-60.672S496,337.941,496,371.395C496,404.809,468.782,431.996,435.328,431.996z M443.328,367.035
		v31.386c0,4.418-3.582,8-8,8c-4.418,0-8-3.582-8-8v-31.386c0-4.418,3.582-8,8-8C439.747,359.035,443.328,362.618,443.328,367.035z
		 M438.399,351.68c-3.698,1.533-6.417,0.171-8.719-1.68c-3.637-3.637-2.811-9.922,1.199-12.32c3.389-2.26,7.802-2.01,11.121,2.16
		C444.718,345.32,442.515,349.956,438.399,351.68z"/></svg>